<svg width="250" height="35" viewBox="0 0 250 35" fill="none" xmlns="http://www.w3.org/2000/svg">
<path d="M0.35 18.025C0.35 14.875 0.98 12.07 2.24 9.61C3.53 7.15 5.36 5.245 7.73 3.895C10.1 2.515 12.89 1.825 16.1 1.825C18.86 1.825 21.32 2.35 23.48 3.4C25.67 4.42 27.44 5.875 28.79 7.765C30.17 9.655 31.085 11.86 31.535 14.38H21.005C20.525 13.33 19.835 12.52 18.935 11.95C18.065 11.35 17.06 11.05 15.92 11.05C14.24 11.05 12.905 11.68 11.915 12.94C10.955 14.2 10.475 15.895 10.475 18.025C10.475 20.155 10.955 21.85 11.915 23.11C12.905 24.37 14.24 25 15.92 25C17.06 25 18.065 24.715 18.935 24.145C19.835 23.545 20.525 22.72 21.005 21.67H31.535C31.085 24.19 30.17 26.395 28.79 28.285C27.44 30.175 25.67 31.645 23.48 32.695C21.32 33.715 18.86 34.225 16.1 34.225C12.89 34.225 10.1 33.55 7.73 32.2C5.36 30.82 3.53 28.9 2.24 26.44C0.98 23.98 0.35 21.175 0.35 18.025ZM33.7818 21.31C33.7818 18.64 34.2318 16.33 35.1318 14.38C36.0618 12.4 37.3218 10.9 38.9118 9.88C40.5018 8.83 42.2868 8.305 44.2668 8.305C45.9168 8.305 47.3418 8.65 48.5418 9.34C49.7418 10 50.6568 10.915 51.2868 12.085V8.62H61.2318V34H51.2868V30.535C50.6568 31.705 49.7418 32.635 48.5418 33.325C47.3418 33.985 45.9168 34.315 44.2668 34.315C42.2868 34.315 40.5018 33.805 38.9118 32.785C37.3218 31.735 36.0618 30.235 35.1318 28.285C34.2318 26.305 33.7818 23.98 33.7818 21.31ZM51.2868 21.31C51.2868 19.96 50.9418 18.91 50.2518 18.16C49.5618 17.41 48.6768 17.035 47.5968 17.035C46.5168 17.035 45.6318 17.41 44.9418 18.16C44.2518 18.91 43.9068 19.96 43.9068 21.31C43.9068 22.66 44.2518 23.71 44.9418 24.46C45.6318 25.21 46.5168 25.585 47.5968 25.585C48.6768 25.585 49.5618 25.21 50.2518 24.46C50.9418 23.71 51.2868 22.66 51.2868 21.31ZM81.5128 25.495V34H77.7328C70.7728 34 67.2928 30.535 67.2928 23.605V16.945H64.1428V8.62H67.2928V2.5H77.2828V8.62H81.4228V16.945H77.2828V23.785C77.2828 24.385 77.4178 24.82 77.6878 25.09C77.9878 25.36 78.4678 25.495 79.1278 25.495H81.5128ZM131.087 18.025C131.087 14.875 131.717 12.07 132.977 9.61C134.267 7.15 136.097 5.245 138.467 3.895C140.837 2.515 143.627 1.825 146.837 1.825C149.597 1.825 152.057 2.35 154.217 3.4C156.407 4.42 158.177 5.875 159.527 7.765C160.907 9.655 161.822 11.86 162.272 14.38H151.742C151.262 13.33 150.572 12.52 149.672 11.95C148.802 11.35 147.797 11.05 146.657 11.05C144.977 11.05 143.642 11.68 142.652 12.94C141.692 14.2 141.212 15.895 141.212 18.025C141.212 20.155 141.692 21.85 142.652 23.11C143.642 24.37 144.977 25 146.657 25C147.797 25 148.802 24.715 149.672 24.145C150.572 23.545 151.262 22.72 151.742 21.67H162.272C161.822 24.19 160.907 26.395 159.527 28.285C158.177 30.175 156.407 31.645 154.217 32.695C152.057 33.715 149.597 34.225 146.837 34.225C143.627 34.225 140.837 33.55 138.467 32.2C136.097 30.82 134.267 28.9 132.977 26.44C131.717 23.98 131.087 21.175 131.087 18.025ZM177.929 34.315C175.379 34.315 173.084 33.79 171.044 32.74C169.004 31.69 167.399 30.19 166.229 28.24C165.089 26.26 164.519 23.95 164.519 21.31C164.519 18.67 165.089 16.375 166.229 14.425C167.399 12.445 169.004 10.93 171.044 9.88C173.084 8.83 175.379 8.305 177.929 8.305C180.479 8.305 182.774 8.83 184.814 9.88C186.854 10.93 188.444 12.445 189.584 14.425C190.754 16.375 191.339 18.67 191.339 21.31C191.339 23.95 190.754 26.26 189.584 28.24C188.444 30.19 186.854 31.69 184.814 32.74C182.774 33.79 180.479 34.315 177.929 34.315ZM177.929 25.675C178.859 25.675 179.639 25.315 180.269 24.595C180.899 23.845 181.214 22.75 181.214 21.31C181.214 19.87 180.899 18.79 180.269 18.07C179.639 17.32 178.859 16.945 177.929 16.945C176.999 16.945 176.219 17.32 175.589 18.07C174.959 18.79 174.644 19.87 174.644 21.31C174.644 22.75 174.944 23.845 175.544 24.595C176.174 25.315 176.969 25.675 177.929 25.675ZM193.128 21.31C193.128 18.64 193.578 16.33 194.478 14.38C195.408 12.4 196.668 10.9 198.258 9.88C199.848 8.83 201.633 8.305 203.613 8.305C205.263 8.305 206.673 8.65 207.843 9.34C209.043 10 209.958 10.915 210.588 12.085V0.7H220.578V34H210.588V30.535C209.958 31.705 209.043 32.635 207.843 33.325C206.673 33.985 205.263 34.315 203.613 34.315C201.633 34.315 199.848 33.805 198.258 32.785C196.668 31.735 195.408 30.235 194.478 28.285C193.578 26.305 193.128 23.98 193.128 21.31ZM210.633 21.31C210.633 19.96 210.288 18.91 209.598 18.16C208.908 17.41 208.023 17.035 206.943 17.035C205.863 17.035 204.978 17.41 204.288 18.16C203.598 18.91 203.253 19.96 203.253 21.31C203.253 22.66 203.598 23.71 204.288 24.46C204.978 25.21 205.863 25.585 206.943 25.585C208.023 25.585 208.908 25.21 209.598 24.46C210.288 23.71 210.633 22.66 210.633 21.31ZM249.633 21.085C249.633 21.775 249.588 22.435 249.498 23.065H233.433C233.583 25.255 234.498 26.35 236.178 26.35C237.258 26.35 238.038 25.855 238.518 24.865H249.093C248.733 26.665 247.968 28.285 246.798 29.725C245.658 31.135 244.203 32.26 242.433 33.1C240.693 33.91 238.773 34.315 236.673 34.315C234.153 34.315 231.903 33.79 229.923 32.74C227.973 31.69 226.443 30.19 225.333 28.24C224.253 26.26 223.713 23.95 223.713 21.31C223.713 18.67 224.253 16.375 225.333 14.425C226.443 12.445 227.973 10.93 229.923 9.88C231.903 8.83 234.153 8.305 236.673 8.305C239.193 8.305 241.428 8.83 243.378 9.88C245.358 10.9 246.888 12.37 247.968 14.29C249.078 16.21 249.633 18.475 249.633 21.085ZM239.508 18.7C239.508 17.86 239.238 17.23 238.698 16.81C238.158 16.36 237.483 16.135 236.673 16.135C234.903 16.135 233.868 16.99 233.568 18.7H239.508Z" fill="#F8EFD4"/>
<path d="M110.739 8.44C113.649 8.44 115.914 9.415 117.534 11.365C119.184 13.315 120.009 15.955 120.009 19.285V34H110.064V20.545C110.064 19.345 109.734 18.4 109.074 17.71C108.444 16.99 107.589 16.63 106.509 16.63C105.399 16.63 104.529 16.99 103.899 17.71C103.269 18.4 102.954 19.345 102.954 20.545V34H92.9639V8.62H102.954V12.49C103.734 11.29 104.769 10.315 106.059 9.565C107.379 8.815 108.939 8.44 110.739 8.44Z" fill="#EDC988"/>
</svg>
